<mxfile host="app.diagrams.net" modified="2022-01-28T09:08:39.270Z" agent="5.0 (Macintosh; Intel Mac OS X 10_15_7) AppleWebKit/537.36 (KHTML, like Gecko) Chrome/97.0.4692.99 Safari/537.36" etag="1l31UMpJ2gjoKrnkSWb2" version="16.2.6" type="github">
  <diagram id="4quVsk186itmyTQYKocA" name="Page-1">
    <mxGraphModel dx="823" dy="489" grid="1" gridSize="10" guides="1" tooltips="1" connect="1" arrows="1" fold="1" page="1" pageScale="1" pageWidth="827" pageHeight="1169" math="0" shadow="0">
      <root>
        <mxCell id="0" />
        <mxCell id="1" parent="0" />
        <mxCell id="rXW5a8TmXSSuuKJ7be5A-20" style="edgeStyle=orthogonalEdgeStyle;rounded=0;orthogonalLoop=1;jettySize=auto;html=1;exitX=0.5;exitY=0.5;exitDx=0;exitDy=0;exitPerimeter=0;entryX=0.5;entryY=0;entryDx=0;entryDy=0;dashed=1;endArrow=none;endFill=0;" edge="1" parent="1" source="rXW5a8TmXSSuuKJ7be5A-1" target="rXW5a8TmXSSuuKJ7be5A-13">
          <mxGeometry relative="1" as="geometry" />
        </mxCell>
        <mxCell id="rXW5a8TmXSSuuKJ7be5A-1" value="Editor" style="shape=umlActor;verticalLabelPosition=bottom;verticalAlign=top;html=1;outlineConnect=0;" vertex="1" parent="1">
          <mxGeometry x="300" y="130" width="30" height="60" as="geometry" />
        </mxCell>
        <mxCell id="rXW5a8TmXSSuuKJ7be5A-2" value="EmailAlertsListener" style="shape=umlActor;verticalLabelPosition=bottom;verticalAlign=top;html=1;outlineConnect=0;" vertex="1" parent="1">
          <mxGeometry x="534" y="200" width="30" height="60" as="geometry" />
        </mxCell>
        <mxCell id="rXW5a8TmXSSuuKJ7be5A-24" style="edgeStyle=orthogonalEdgeStyle;rounded=0;orthogonalLoop=1;jettySize=auto;html=1;exitX=0.5;exitY=0.5;exitDx=0;exitDy=0;exitPerimeter=0;entryX=0.5;entryY=0;entryDx=0;entryDy=0;dashed=1;endArrow=none;endFill=0;" edge="1" parent="1" source="rXW5a8TmXSSuuKJ7be5A-3" target="rXW5a8TmXSSuuKJ7be5A-22">
          <mxGeometry relative="1" as="geometry" />
        </mxCell>
        <mxCell id="rXW5a8TmXSSuuKJ7be5A-3" value="LoggingListener" style="shape=umlActor;verticalLabelPosition=bottom;verticalAlign=top;html=1;outlineConnect=0;" vertex="1" parent="1">
          <mxGeometry x="604" y="260" width="30" height="60" as="geometry" />
        </mxCell>
        <mxCell id="rXW5a8TmXSSuuKJ7be5A-11" style="edgeStyle=orthogonalEdgeStyle;rounded=0;orthogonalLoop=1;jettySize=auto;html=1;exitX=0.5;exitY=0.5;exitDx=0;exitDy=0;exitPerimeter=0;entryX=0.5;entryY=0;entryDx=0;entryDy=0;dashed=1;endArrow=none;endFill=0;" edge="1" parent="1" source="rXW5a8TmXSSuuKJ7be5A-4" target="rXW5a8TmXSSuuKJ7be5A-9">
          <mxGeometry relative="1" as="geometry" />
        </mxCell>
        <mxCell id="rXW5a8TmXSSuuKJ7be5A-4" value="EventManager" style="shape=umlActor;verticalLabelPosition=bottom;verticalAlign=top;html=1;outlineConnect=0;" vertex="1" parent="1">
          <mxGeometry x="414" y="130" width="30" height="60" as="geometry" />
        </mxCell>
        <mxCell id="rXW5a8TmXSSuuKJ7be5A-19" style="edgeStyle=orthogonalEdgeStyle;rounded=0;orthogonalLoop=1;jettySize=auto;html=1;exitX=0.5;exitY=0;exitDx=0;exitDy=0;entryX=0.5;entryY=0.5;entryDx=0;entryDy=0;entryPerimeter=0;endArrow=none;endFill=0;dashed=1;" edge="1" parent="1" source="rXW5a8TmXSSuuKJ7be5A-5" target="rXW5a8TmXSSuuKJ7be5A-12">
          <mxGeometry relative="1" as="geometry" />
        </mxCell>
        <mxCell id="rXW5a8TmXSSuuKJ7be5A-5" value="" style="rounded=0;whiteSpace=wrap;html=1;" vertex="1" parent="1">
          <mxGeometry x="230" y="220" width="10" height="290" as="geometry" />
        </mxCell>
        <mxCell id="rXW5a8TmXSSuuKJ7be5A-7" value="" style="endArrow=open;html=1;rounded=0;dashed=1;exitX=1;exitY=0.031;exitDx=0;exitDy=0;exitPerimeter=0;endFill=0;" edge="1" parent="1" source="rXW5a8TmXSSuuKJ7be5A-5" target="rXW5a8TmXSSuuKJ7be5A-2">
          <mxGeometry width="50" height="50" relative="1" as="geometry">
            <mxPoint x="280" y="350" as="sourcePoint" />
            <mxPoint x="330" y="300" as="targetPoint" />
          </mxGeometry>
        </mxCell>
        <mxCell id="rXW5a8TmXSSuuKJ7be5A-8" value="" style="endArrow=open;html=1;rounded=0;dashed=1;exitX=1.2;exitY=0.231;exitDx=0;exitDy=0;exitPerimeter=0;endFill=0;" edge="1" parent="1" source="rXW5a8TmXSSuuKJ7be5A-5" target="rXW5a8TmXSSuuKJ7be5A-3">
          <mxGeometry width="50" height="50" relative="1" as="geometry">
            <mxPoint x="280" y="420" as="sourcePoint" />
            <mxPoint x="330" y="370" as="targetPoint" />
          </mxGeometry>
        </mxCell>
        <mxCell id="rXW5a8TmXSSuuKJ7be5A-23" value="update(Filename)" style="edgeStyle=orthogonalEdgeStyle;rounded=0;orthogonalLoop=1;jettySize=auto;html=1;exitX=1;exitY=0.5;exitDx=0;exitDy=0;dashed=1;endArrow=classic;endFill=1;entryX=0;entryY=0.25;entryDx=0;entryDy=0;" edge="1" parent="1" source="rXW5a8TmXSSuuKJ7be5A-9" target="rXW5a8TmXSSuuKJ7be5A-22">
          <mxGeometry relative="1" as="geometry">
            <mxPoint x="594" y="470" as="targetPoint" />
          </mxGeometry>
        </mxCell>
        <mxCell id="rXW5a8TmXSSuuKJ7be5A-47" style="edgeStyle=orthogonalEdgeStyle;rounded=0;orthogonalLoop=1;jettySize=auto;html=1;exitX=0.5;exitY=1;exitDx=0;exitDy=0;entryX=0.5;entryY=0;entryDx=0;entryDy=0;dashed=1;endArrow=none;endFill=0;strokeColor=#000000;strokeWidth=1;" edge="1" parent="1" source="rXW5a8TmXSSuuKJ7be5A-9" target="rXW5a8TmXSSuuKJ7be5A-34">
          <mxGeometry relative="1" as="geometry" />
        </mxCell>
        <mxCell id="rXW5a8TmXSSuuKJ7be5A-9" value="" style="rounded=0;whiteSpace=wrap;html=1;" vertex="1" parent="1">
          <mxGeometry x="424" y="430" width="10" height="80" as="geometry" />
        </mxCell>
        <mxCell id="rXW5a8TmXSSuuKJ7be5A-12" value="Client" style="shape=umlActor;verticalLabelPosition=bottom;verticalAlign=top;html=1;outlineConnect=0;" vertex="1" parent="1">
          <mxGeometry x="220" y="130" width="30" height="60" as="geometry" />
        </mxCell>
        <mxCell id="rXW5a8TmXSSuuKJ7be5A-21" value="notify(&#39;open&#39;,&lt;br&gt;data)" style="edgeStyle=orthogonalEdgeStyle;rounded=0;orthogonalLoop=1;jettySize=auto;html=1;exitX=1;exitY=0.25;exitDx=0;exitDy=0;entryX=0;entryY=0.25;entryDx=0;entryDy=0;dashed=1;endArrow=classic;endFill=1;" edge="1" parent="1" source="rXW5a8TmXSSuuKJ7be5A-13" target="rXW5a8TmXSSuuKJ7be5A-9">
          <mxGeometry relative="1" as="geometry" />
        </mxCell>
        <mxCell id="rXW5a8TmXSSuuKJ7be5A-25" value="File" style="edgeStyle=orthogonalEdgeStyle;rounded=0;orthogonalLoop=1;jettySize=auto;html=1;exitX=0;exitY=0.75;exitDx=0;exitDy=0;entryX=1.222;entryY=0.956;entryDx=0;entryDy=0;dashed=1;endArrow=classic;endFill=1;entryPerimeter=0;" edge="1" parent="1" source="rXW5a8TmXSSuuKJ7be5A-13" target="rXW5a8TmXSSuuKJ7be5A-5">
          <mxGeometry relative="1" as="geometry" />
        </mxCell>
        <mxCell id="rXW5a8TmXSSuuKJ7be5A-45" style="edgeStyle=orthogonalEdgeStyle;rounded=0;orthogonalLoop=1;jettySize=auto;html=1;exitX=0.5;exitY=1;exitDx=0;exitDy=0;entryX=0.5;entryY=0;entryDx=0;entryDy=0;dashed=1;endArrow=none;endFill=0;strokeColor=#000000;strokeWidth=1;" edge="1" parent="1" source="rXW5a8TmXSSuuKJ7be5A-13" target="rXW5a8TmXSSuuKJ7be5A-36">
          <mxGeometry relative="1" as="geometry" />
        </mxCell>
        <mxCell id="rXW5a8TmXSSuuKJ7be5A-13" value="" style="rounded=0;whiteSpace=wrap;html=1;" vertex="1" parent="1">
          <mxGeometry x="310" y="430" width="10" height="90" as="geometry" />
        </mxCell>
        <mxCell id="rXW5a8TmXSSuuKJ7be5A-15" value="openFile()" style="endArrow=classic;html=1;rounded=0;exitX=0.874;exitY=0.77;exitDx=0;exitDy=0;exitPerimeter=0;entryX=0.1;entryY=0.117;entryDx=0;entryDy=0;entryPerimeter=0;" edge="1" parent="1" source="rXW5a8TmXSSuuKJ7be5A-5" target="rXW5a8TmXSSuuKJ7be5A-13">
          <mxGeometry width="50" height="50" relative="1" as="geometry">
            <mxPoint x="290" y="470" as="sourcePoint" />
            <mxPoint x="340" y="420" as="targetPoint" />
          </mxGeometry>
        </mxCell>
        <mxCell id="rXW5a8TmXSSuuKJ7be5A-53" style="edgeStyle=orthogonalEdgeStyle;rounded=0;orthogonalLoop=1;jettySize=auto;html=1;exitX=0.5;exitY=1;exitDx=0;exitDy=0;entryX=0.5;entryY=0;entryDx=0;entryDy=0;dashed=1;endArrow=none;endFill=0;strokeColor=#000000;strokeWidth=1;" edge="1" parent="1" source="rXW5a8TmXSSuuKJ7be5A-22" target="rXW5a8TmXSSuuKJ7be5A-52">
          <mxGeometry relative="1" as="geometry" />
        </mxCell>
        <mxCell id="rXW5a8TmXSSuuKJ7be5A-22" value="" style="rounded=0;whiteSpace=wrap;html=1;" vertex="1" parent="1">
          <mxGeometry x="614" y="460" width="10" height="40" as="geometry" />
        </mxCell>
        <mxCell id="rXW5a8TmXSSuuKJ7be5A-37" value="saveFile()" style="edgeStyle=orthogonalEdgeStyle;rounded=0;orthogonalLoop=1;jettySize=auto;html=1;exitX=1;exitY=0.25;exitDx=0;exitDy=0;entryX=-0.083;entryY=0.139;entryDx=0;entryDy=0;entryPerimeter=0;endArrow=classic;endFill=1;strokeColor=#000000;strokeWidth=1;" edge="1" parent="1" source="rXW5a8TmXSSuuKJ7be5A-26" target="rXW5a8TmXSSuuKJ7be5A-36">
          <mxGeometry relative="1" as="geometry" />
        </mxCell>
        <mxCell id="rXW5a8TmXSSuuKJ7be5A-43" style="edgeStyle=orthogonalEdgeStyle;rounded=0;orthogonalLoop=1;jettySize=auto;html=1;exitX=0.5;exitY=1;exitDx=0;exitDy=0;entryX=0.5;entryY=0;entryDx=0;entryDy=0;dashed=1;endArrow=none;endFill=0;strokeColor=#000000;strokeWidth=1;" edge="1" parent="1" source="rXW5a8TmXSSuuKJ7be5A-26" target="rXW5a8TmXSSuuKJ7be5A-42">
          <mxGeometry relative="1" as="geometry" />
        </mxCell>
        <mxCell id="rXW5a8TmXSSuuKJ7be5A-26" value="" style="rounded=0;whiteSpace=wrap;html=1;" vertex="1" parent="1">
          <mxGeometry x="230" y="510" width="10" height="290" as="geometry" />
        </mxCell>
        <mxCell id="rXW5a8TmXSSuuKJ7be5A-27" value="" style="endArrow=none;html=1;rounded=0;strokeColor=#FFFFFF;exitX=0;exitY=0;exitDx=0;exitDy=0;" edge="1" parent="1" source="rXW5a8TmXSSuuKJ7be5A-26">
          <mxGeometry width="50" height="50" relative="1" as="geometry">
            <mxPoint x="330" y="550" as="sourcePoint" />
            <mxPoint x="240" y="510" as="targetPoint" />
          </mxGeometry>
        </mxCell>
        <mxCell id="rXW5a8TmXSSuuKJ7be5A-54" style="edgeStyle=orthogonalEdgeStyle;rounded=0;orthogonalLoop=1;jettySize=auto;html=1;exitX=0;exitY=0.5;exitDx=0;exitDy=0;entryX=1.048;entryY=0.41;entryDx=0;entryDy=0;entryPerimeter=0;dashed=1;endArrow=open;endFill=0;strokeColor=#000000;strokeWidth=1;" edge="1" parent="1" target="rXW5a8TmXSSuuKJ7be5A-5">
          <mxGeometry relative="1" as="geometry">
            <mxPoint x="424" y="340" as="sourcePoint" />
          </mxGeometry>
        </mxCell>
        <mxCell id="rXW5a8TmXSSuuKJ7be5A-29" value="subscribe(&#39;open&#39;,&lt;br&gt;LoggingListener)" style="endArrow=classic;html=1;strokeWidth=1;rounded=0;exitX=0.874;exitY=0.36;exitDx=0;exitDy=0;exitPerimeter=0;entryX=0;entryY=0.25;entryDx=0;entryDy=0;endFill=1;" edge="1" parent="1" source="rXW5a8TmXSSuuKJ7be5A-5">
          <mxGeometry width="50" height="50" relative="1" as="geometry">
            <mxPoint x="260" y="390" as="sourcePoint" />
            <mxPoint x="424" y="325" as="targetPoint" />
          </mxGeometry>
        </mxCell>
        <mxCell id="rXW5a8TmXSSuuKJ7be5A-30" value="subscribe(&#39;save&#39;,&lt;br&gt;EmailAlLis)" style="endArrow=classic;dashed=1;html=1;strokeWidth=1;rounded=0;exitX=0.874;exitY=0.36;exitDx=0;exitDy=0;exitPerimeter=0;endFill=1;entryX=-0.004;entryY=0.875;entryDx=0;entryDy=0;entryPerimeter=0;" edge="1" parent="1">
          <mxGeometry width="50" height="50" relative="1" as="geometry">
            <mxPoint x="238.73999999999978" y="360" as="sourcePoint" />
            <mxPoint x="423.96000000000004" y="362.5" as="targetPoint" />
          </mxGeometry>
        </mxCell>
        <mxCell id="rXW5a8TmXSSuuKJ7be5A-49" style="edgeStyle=orthogonalEdgeStyle;rounded=0;orthogonalLoop=1;jettySize=auto;html=1;exitX=0.5;exitY=1;exitDx=0;exitDy=0;dashed=1;endArrow=none;endFill=0;strokeColor=#000000;strokeWidth=1;" edge="1" parent="1" source="rXW5a8TmXSSuuKJ7be5A-34" target="rXW5a8TmXSSuuKJ7be5A-48">
          <mxGeometry relative="1" as="geometry" />
        </mxCell>
        <mxCell id="rXW5a8TmXSSuuKJ7be5A-34" value="" style="rounded=0;whiteSpace=wrap;html=1;" vertex="1" parent="1">
          <mxGeometry x="424" y="570" width="10" height="80" as="geometry" />
        </mxCell>
        <mxCell id="rXW5a8TmXSSuuKJ7be5A-35" value="notify(&#39;open&#39;,&lt;br&gt;data)" style="edgeStyle=orthogonalEdgeStyle;rounded=0;orthogonalLoop=1;jettySize=auto;html=1;exitX=1;exitY=0.25;exitDx=0;exitDy=0;entryX=0;entryY=0.25;entryDx=0;entryDy=0;dashed=1;endArrow=classic;endFill=1;" edge="1" parent="1" source="rXW5a8TmXSSuuKJ7be5A-36" target="rXW5a8TmXSSuuKJ7be5A-34">
          <mxGeometry relative="1" as="geometry" />
        </mxCell>
        <mxCell id="rXW5a8TmXSSuuKJ7be5A-41" value="File" style="edgeStyle=orthogonalEdgeStyle;rounded=0;orthogonalLoop=1;jettySize=auto;html=1;exitX=0;exitY=0.75;exitDx=0;exitDy=0;entryX=1.135;entryY=0.439;entryDx=0;entryDy=0;entryPerimeter=0;endArrow=classic;endFill=1;strokeColor=#000000;strokeWidth=1;dashed=1;" edge="1" parent="1" source="rXW5a8TmXSSuuKJ7be5A-36" target="rXW5a8TmXSSuuKJ7be5A-26">
          <mxGeometry relative="1" as="geometry" />
        </mxCell>
        <mxCell id="rXW5a8TmXSSuuKJ7be5A-46" style="edgeStyle=orthogonalEdgeStyle;rounded=0;orthogonalLoop=1;jettySize=auto;html=1;exitX=0.5;exitY=1;exitDx=0;exitDy=0;entryX=0.5;entryY=0;entryDx=0;entryDy=0;dashed=1;endArrow=none;endFill=0;strokeColor=#000000;strokeWidth=1;" edge="1" parent="1" source="rXW5a8TmXSSuuKJ7be5A-36" target="rXW5a8TmXSSuuKJ7be5A-44">
          <mxGeometry relative="1" as="geometry" />
        </mxCell>
        <mxCell id="rXW5a8TmXSSuuKJ7be5A-36" value="" style="rounded=0;whiteSpace=wrap;html=1;" vertex="1" parent="1">
          <mxGeometry x="310" y="570" width="10" height="90" as="geometry" />
        </mxCell>
        <mxCell id="rXW5a8TmXSSuuKJ7be5A-51" style="edgeStyle=orthogonalEdgeStyle;rounded=0;orthogonalLoop=1;jettySize=auto;html=1;exitX=0.5;exitY=1;exitDx=0;exitDy=0;dashed=1;endArrow=none;endFill=0;strokeColor=#000000;strokeWidth=1;" edge="1" parent="1" source="rXW5a8TmXSSuuKJ7be5A-38" target="rXW5a8TmXSSuuKJ7be5A-50">
          <mxGeometry relative="1" as="geometry" />
        </mxCell>
        <mxCell id="rXW5a8TmXSSuuKJ7be5A-38" value="" style="rounded=0;whiteSpace=wrap;html=1;" vertex="1" parent="1">
          <mxGeometry x="544" y="577.5" width="10" height="65" as="geometry" />
        </mxCell>
        <mxCell id="rXW5a8TmXSSuuKJ7be5A-39" value="update&lt;br&gt;(Filename)" style="edgeStyle=orthogonalEdgeStyle;rounded=0;orthogonalLoop=1;jettySize=auto;html=1;exitX=1.126;exitY=0.352;exitDx=0;exitDy=0;dashed=1;endArrow=classic;endFill=1;exitPerimeter=0;entryX=-0.091;entryY=0.357;entryDx=0;entryDy=0;entryPerimeter=0;" edge="1" parent="1" source="rXW5a8TmXSSuuKJ7be5A-34" target="rXW5a8TmXSSuuKJ7be5A-38">
          <mxGeometry relative="1" as="geometry">
            <mxPoint x="459.96000000000004" y="672.5" as="sourcePoint" />
            <mxPoint x="500" y="640" as="targetPoint" />
            <Array as="points">
              <mxPoint x="520" y="598" />
              <mxPoint x="520" y="601" />
            </Array>
          </mxGeometry>
        </mxCell>
        <mxCell id="rXW5a8TmXSSuuKJ7be5A-40" style="edgeStyle=orthogonalEdgeStyle;rounded=0;orthogonalLoop=1;jettySize=auto;html=1;exitX=0.5;exitY=0.5;exitDx=0;exitDy=0;exitPerimeter=0;entryX=0.5;entryY=0;entryDx=0;entryDy=0;dashed=1;endArrow=none;endFill=0;" edge="1" parent="1" source="rXW5a8TmXSSuuKJ7be5A-2" target="rXW5a8TmXSSuuKJ7be5A-38">
          <mxGeometry relative="1" as="geometry">
            <mxPoint x="629" y="300" as="sourcePoint" />
            <mxPoint x="629" y="470" as="targetPoint" />
          </mxGeometry>
        </mxCell>
        <mxCell id="rXW5a8TmXSSuuKJ7be5A-42" value="Client" style="rounded=0;whiteSpace=wrap;html=1;" vertex="1" parent="1">
          <mxGeometry x="207.5" y="830" width="55" height="30" as="geometry" />
        </mxCell>
        <mxCell id="rXW5a8TmXSSuuKJ7be5A-44" value="Editor" style="rounded=0;whiteSpace=wrap;html=1;" vertex="1" parent="1">
          <mxGeometry x="287.5" y="830" width="55" height="30" as="geometry" />
        </mxCell>
        <mxCell id="rXW5a8TmXSSuuKJ7be5A-48" value="Event&lt;br&gt;Manager" style="rounded=0;whiteSpace=wrap;html=1;" vertex="1" parent="1">
          <mxGeometry x="401.5" y="830" width="55" height="30" as="geometry" />
        </mxCell>
        <mxCell id="rXW5a8TmXSSuuKJ7be5A-50" value="Email&lt;br&gt;Alerts Listener" style="rounded=0;whiteSpace=wrap;html=1;" vertex="1" parent="1">
          <mxGeometry x="521.5" y="830" width="55" height="40" as="geometry" />
        </mxCell>
        <mxCell id="rXW5a8TmXSSuuKJ7be5A-52" value="Logging&lt;br&gt;Listener" style="rounded=0;whiteSpace=wrap;html=1;" vertex="1" parent="1">
          <mxGeometry x="591.5" y="830" width="55" height="40" as="geometry" />
        </mxCell>
        <mxCell id="rXW5a8TmXSSuuKJ7be5A-55" style="edgeStyle=orthogonalEdgeStyle;rounded=0;orthogonalLoop=1;jettySize=auto;html=1;entryX=1;entryY=0.5;entryDx=0;entryDy=0;dashed=1;endArrow=open;endFill=0;strokeColor=#000000;strokeWidth=1;" edge="1" parent="1" target="rXW5a8TmXSSuuKJ7be5A-5">
          <mxGeometry relative="1" as="geometry">
            <mxPoint x="420" y="369" as="sourcePoint" />
            <mxPoint x="250.4799999999998" y="348.9" as="targetPoint" />
          </mxGeometry>
        </mxCell>
        <mxCell id="rXW5a8TmXSSuuKJ7be5A-57" value="" style="rounded=0;whiteSpace=wrap;html=1;" vertex="1" parent="1">
          <mxGeometry x="424" y="310" width="10" height="40" as="geometry" />
        </mxCell>
        <mxCell id="rXW5a8TmXSSuuKJ7be5A-58" value="" style="rounded=0;whiteSpace=wrap;html=1;" vertex="1" parent="1">
          <mxGeometry x="424" y="360" width="10" height="20" as="geometry" />
        </mxCell>
      </root>
    </mxGraphModel>
  </diagram>
</mxfile>
